<svg version="1.1" xmlns="http://www.w3.org/2000/svg" width="1024" height="1024">
<path d="M0 0 C337.92 0 675.84 0 1024 0 C1024 337.92 1024 675.84 1024 1024 C686.08 1024 348.16 1024 0 1024 C0 686.08 0 348.16 0 0 Z " fill="#FEFEFE" transform="translate(0,0)"/>
<path d="M0 0 C87.45 0 174.9 0 265 0 C265 86.13 265 172.26 265 261 C177.55 261 90.1 261 0 261 C0 174.87 0 88.74 0 0 Z " fill="#FEFDFE" transform="translate(82,333)"/>
<path d="M0 0 C87.12 0 174.24 0 264 0 C264 86.13 264 172.26 264 261 C176.88 261 89.76 261 0 261 C0 174.87 0 88.74 0 0 Z " fill="#FEFEFE" transform="translate(677,333)"/>
<path d="M0 0 C0.66 0 1.32 0 2 0 C2.49290527 0.96075439 2.98581055 1.92150879 3.49365234 2.91137695 C15.07926986 25.48871456 26.73851568 48.00986142 38.80273438 70.33618164 C42.93177674 77.98501686 47.00250813 85.66201579 50.98046875 93.390625 C53.08781897 97.47706393 53.08781897 97.47706393 56 101 C56.55349121 99.91807373 57.10698242 98.83614746 57.67724609 97.72143555 C59.78226226 93.60742604 61.8887411 89.49416679 63.99560547 85.38110352 C64.89768131 83.61958091 65.79938924 81.85786984 66.70068359 80.09594727 C72.32565977 69.10053295 78.00993088 58.13943091 83.77636719 47.2175293 C86.06765081 42.8769914 88.33102753 38.52232232 90.58886719 34.16430664 C96.54466828 22.67426821 102.70241498 11.30600409 109 0 C110.96645878 2.94968817 111.79009285 5.16556384 112.80566406 8.53198242 C113.15580063 9.6836087 113.50593719 10.83523499 113.86668396 12.02175903 C114.24973385 13.29964143 114.63271178 14.5775454 115.015625 15.85546875 C115.42260436 17.20024177 115.83005119 18.54487339 116.2379303 19.88937378 C117.11730449 22.7913003 117.99361654 25.69412744 118.86758423 28.59768677 C120.26495972 33.23976232 121.66927642 37.87971891 123.07495117 42.51928711 C124.54847058 47.38362754 126.02172492 52.2480463 127.49284363 57.1131134 C132.27520962 72.92701942 137.09594599 88.72909996 141.92657471 104.52832031 C143.07963382 108.29990684 144.23128129 112.07192268 145.38246536 115.84408188 C149.6745212 129.90719065 153.9787038 143.9661358 158.34773064 158.00554848 C159.30773316 161.09170905 160.26531811 164.17862008 161.22338867 167.26538086 C162.61805804 171.75827416 164.0217368 176.24820934 165.4309082 180.73657227 C166.04542611 182.71359832 166.65962361 184.69072401 167.2734375 186.66796875 C167.55349136 187.55074493 167.83354523 188.43352112 168.12208557 189.3430481 C168.4974369 190.55998856 168.4974369 190.55998856 168.88037109 191.80151367 C169.20719376 192.84477058 169.20719376 192.84477058 169.5406189 193.90910339 C170 196 170 196 170 201 C153.17 201 136.34 201 119 201 C114.49874536 189.74686339 114.49874536 189.74686339 113.08398438 185.43481445 C112.60137901 183.97110664 112.60137901 183.97110664 112.10902405 182.47782898 C111.77398361 181.45002823 111.43894318 180.42222748 111.09375 179.36328125 C110.73192123 178.26083572 110.37009247 177.1583902 109.99729919 176.02253723 C108.82774657 172.45375084 107.66358824 168.88323509 106.5 165.3125 C106.10281769 164.09778015 105.70563538 162.8830603 105.29641724 161.63153076 C99.48906127 143.86632286 93.83410744 126.06085462 88.44140625 108.1652832 C88.21147476 107.40535568 87.98154327 106.64542816 87.74464417 105.86247253 C87.32115939 104.46088626 86.90050398 103.05844062 86.48326111 101.65498352 C85.7127753 98.57375209 85.7127753 98.57375209 84 96 C83.60844727 96.76328613 83.21689453 97.52657227 82.81347656 98.31298828 C69.65715304 123.93056977 69.65715304 123.93056977 63.125 135.75 C55.0775318 150.31985677 47.57546214 165.18114337 40 180 C39.34 180 38.68 180 38 180 C37.74943848 179.49364014 37.49887695 178.98728027 37.24072266 178.46557617 C32.68996844 169.28254628 28.1087025 160.12021354 23.3125 151.0625 C19.00026233 142.91716218 14.73646035 134.74744697 10.5 126.5625 C10.17914429 125.94260193 9.85828857 125.32270386 9.52770996 124.684021 C3.91860856 113.83893151 -1.5855286 102.9436022 -7 92 C-8.93254224 94.89881336 -9.75989986 97.04935263 -10.76489258 100.34960938 C-11.10361389 101.45330368 -11.44233521 102.55699799 -11.7913208 103.69413757 C-12.15538025 104.89850967 -12.5194397 106.10288177 -12.89453125 107.34375 C-13.27865173 108.60085281 -13.66277222 109.85795563 -14.05853271 111.15315247 C-14.88546847 113.8598147 -15.70923029 116.56741518 -16.5305481 119.27578735 C-17.81229049 123.50219942 -19.10197478 127.72616352 -20.39233398 131.94995117 C-24.32613188 144.83669261 -28.22896188 157.73222575 -32.078125 170.64453125 C-32.67988941 172.65756471 -33.28169447 174.67058601 -33.88354492 176.68359375 C-34.98682263 180.37490975 -36.07918706 184.06922158 -37.1652832 187.765625 C-37.65282921 189.40244159 -38.14068283 191.03916659 -38.62890625 192.67578125 C-38.84262878 193.41439896 -39.05635132 194.15301666 -39.27655029 194.91401672 C-39.79234025 196.62811355 -40.38826279 198.31775603 -41 200 C-44.17393689 201.58696844 -47.58174205 201.1431447 -51.0625 201.125 C-52.18108398 201.13080078 -52.18108398 201.13080078 -53.32226562 201.13671875 C-58.87336499 201.12663501 -58.87336499 201.12663501 -60 200 C-59.54310658 193.19670325 -57.65422062 187.04395155 -55.59765625 180.5703125 C-55.24848648 179.45203064 -54.89931671 178.33374878 -54.53956604 177.18157959 C-53.38671553 173.49408862 -52.2244967 169.80961796 -51.0625 166.125 C-50.24956698 163.5319038 -49.43891562 160.93809656 -48.62841797 158.34423828 C-46.93897409 152.94005323 -45.24583875 147.5370391 -43.55029297 142.13476562 C-39.55094672 129.38906425 -35.58626134 116.63258385 -31.625 103.875 C-31.24828156 102.66225403 -30.87156311 101.44950806 -30.48342896 100.20001221 C-22.82797117 75.54550169 -15.35103616 50.84145542 -8.08203125 26.0703125 C-7.84648529 25.26789124 -7.61093933 24.46546997 -7.36825562 23.63873291 C-6.25225567 19.83508296 -5.13897065 16.03067903 -4.03125 12.22460938 C-3.64193272 10.89192544 -3.25261012 9.55924305 -2.86328125 8.2265625 C-2.52594971 7.06721191 -2.18861816 5.90786133 -1.84106445 4.71337891 C-1 2 -1 2 0 0 Z " fill="#EA26C9" transform="translate(164,361)"/>
<path d="M0 0 C17.82 0 35.64 0 54 0 C54.33 21.78 54.66 43.56 55 66 C59.61340946 61.38659054 63.88043633 57.0210256 68.09439087 52.13265991 C71.93481991 47.83464888 76.07517004 43.82516145 80.16796875 39.76953125 C81.13516835 38.80674961 82.10206632 37.84366487 83.06867981 36.8802948 C86.10544967 33.85483805 89.14617517 30.83337693 92.1875 27.8125 C95.72654508 24.29715918 99.26389335 20.78014381 102.79705238 17.25888634 C104.2019279 15.86044146 105.60986741 14.46507681 107.01786804 13.06977844 C107.87588516 12.21506454 108.73390228 11.36035065 109.61791992 10.47973633 C110.36957932 9.73331375 111.12123871 8.98689117 111.89567566 8.21784973 C114.08271688 5.98994327 114.08271688 5.98994327 116.08638 3.28251648 C118 1 118 1 121 0 C123.65894107 -0.08494728 126.29085377 -0.11594796 128.94921875 -0.09765625 C129.72183548 -0.0962413 130.49445221 -0.09482635 131.29048157 -0.09336853 C133.75619389 -0.08777466 136.22181515 -0.07522333 138.6875 -0.0625 C140.36002473 -0.05748421 142.03255088 -0.05292144 143.70507812 -0.04882812 C147.80342046 -0.03780724 151.90169479 -0.02054684 156 0 C155.17236628 4.15490482 153.68960488 5.3969177 150.3125 8 C149.31476563 8.78761719 148.31703125 9.57523437 147.2890625 10.38671875 C146.75313477 10.80872559 146.21720703 11.23073242 145.66503906 11.66552734 C142.77964862 13.97807047 139.98662156 16.39685731 137.1875 18.8125 C136.6001709 19.31773193 136.0128418 19.82296387 135.40771484 20.34350586 C134.20566234 21.37763656 133.00400406 22.41222569 131.80273438 23.44726562 C128.8510411 25.98962332 125.89468485 28.52653368 122.9375 31.0625 C122.36781494 31.55113525 121.79812988 32.03977051 121.21118164 32.54321289 C115.16498698 37.72407432 109.08516229 42.86501255 103 48 C105.0035946 55.24436948 107.58363454 62.07968943 110.5 69 C115.91935238 82.09210283 120.98261788 95.3118296 126 108.5625 C126.59992767 110.14614349 126.59992767 110.14614349 127.2119751 111.76177979 C129.28835772 117.24449594 131.36224766 122.72815044 133.43457031 128.21240234 C137.32572845 138.50969006 141.22598147 148.80352161 145.13134766 159.09542847 C146.34582593 162.29806657 147.55777999 165.50165157 148.76953125 168.70532227 C149.52043647 170.68651114 150.27172446 172.66755499 151.0234375 174.6484375 C151.37565369 175.5775444 151.72786987 176.50665131 152.09075928 177.46391296 C154.31766529 183.3053667 156.65567989 189.07237263 159.20947266 194.77978516 C160 197 160 197 160 201 C149.44 201 138.88 201 128 201 C125.35344819 194.97948155 122.70745658 188.95871925 120.0625 182.9375 C119.65740204 182.01531677 119.25230408 181.09313354 118.83493042 180.14300537 C113.39850658 167.76504365 107.98127271 155.37896433 102.58813477 142.98208618 C96.37165204 128.69553309 90.12828375 114.42087644 83.84567261 100.16326904 C82.99535863 98.2327467 82.14600175 96.3018025 81.29763794 94.37042236 C80.11918739 91.68841535 78.93706739 89.00805663 77.75390625 86.328125 C77.22700195 85.12635117 77.22700195 85.12635117 76.68945312 83.90029907 C76.36340088 83.16395233 76.03734863 82.42760559 75.70141602 81.66894531 C75.41959976 81.02934875 75.13778351 80.3897522 74.84742737 79.73077393 C73.91390806 77.72753528 73.91390806 77.72753528 72 75 C64.11000866 80.95756438 55.39865367 87.58942011 53.44161987 97.75076294 C52.73642148 104.33401325 52.92646487 110.89718839 53.12109375 117.50390625 C53.13038408 119.92339903 53.13212969 122.34293134 53.12672424 124.76243591 C53.1325706 131.07590167 53.2396292 137.38357869 53.36914062 143.69555664 C53.50352975 151.29766163 53.5098531 158.90086167 53.53809357 166.50395966 C53.59493265 178.0063943 53.81248114 189.49562145 54 201 C36.18 201 18.36 201 0 201 C0 134.67 0 68.34 0 0 Z " fill="#EA27C9" transform="translate(729,361)"/>
<path d="M0 0 C3.41541311 1.26221789 4.15234513 1.88600737 5.875 5.0625 C6.15818378 8.02790299 6.26701482 10.77972942 6.23576355 13.74371338 C6.23832682 14.62917839 6.2408901 15.5146434 6.24353105 16.42694068 C6.24848008 19.39972008 6.23195746 22.3719938 6.21557617 25.34472656 C6.21473014 27.4733682 6.21520457 29.60201072 6.21690369 31.73065186 C6.217766 37.51543084 6.20010188 43.30002399 6.17918181 49.08475971 C6.16045445 55.12792842 6.15866768 61.17110118 6.15510559 67.21429443 C6.14577354 78.66064303 6.12114402 90.10690589 6.09105712 101.5532167 C6.05754923 114.58327924 6.04103618 127.61334583 6.02597082 140.64344072 C5.99459552 167.44984139 5.94181244 194.2561659 5.875 221.0625 C4.46386087 220.12778202 3.05354138 219.19182659 1.64355469 218.25537109 C0.85809265 217.73429779 0.07263062 217.21322449 -0.7366333 216.67636108 C-4.5256475 214.11605802 -8.20168165 211.41011429 -11.875 208.6875 C-12.68646484 208.08808594 -13.49792969 207.48867188 -14.33398438 206.87109375 C-21.36841315 201.65841544 -28.32780522 196.34956574 -35.28173828 191.03027344 C-44.14606172 184.25984606 -53.12689593 177.65344432 -62.125 171.0625 C-71.72998486 164.02062172 -81.30591417 156.96138724 -90.71875 149.6640625 C-94.80452867 146.52134426 -98.96761764 143.48444147 -103.125 140.4375 C-110.91138951 134.72915013 -118.60337727 128.90660041 -126.26953125 123.03808594 C-132.9582528 117.92740721 -139.71611058 112.91821409 -146.50585938 107.94287109 C-152.02821146 103.88995096 -157.47714646 99.75613558 -162.875 95.5390625 C-165.81512676 93.26750312 -168.82155408 91.09030574 -171.828125 88.90771484 C-172.81973633 88.18756195 -173.81134766 87.46740906 -174.83300781 86.72543335 C-175.58936523 86.17666534 -176.34572266 85.62789734 -177.125 85.0625 C-177.12831015 85.66364309 -177.13162029 86.26478619 -177.13503075 86.88414574 C-177.21617823 101.49737638 -177.30824337 116.11050984 -177.41252708 130.72359276 C-177.462693 137.79031576 -177.50913533 144.85702693 -177.546875 151.92382812 C-177.5832783 158.73845008 -177.62997451 165.55293859 -177.68306351 172.36745071 C-177.70165479 174.97265017 -177.71674505 177.57787694 -177.72834396 180.18311691 C-177.74512555 183.82061663 -177.77414081 187.45782187 -177.80615234 191.09521484 C-177.80831253 192.1820607 -177.81047272 193.26890656 -177.81269836 194.38868713 C-177.82386185 195.37589249 -177.83502533 196.36309784 -177.8465271 197.38021851 C-177.85205786 198.24117315 -177.85758862 199.1021278 -177.86328697 199.98917198 C-178.125 202.0625 -178.125 202.0625 -180.125 204.0625 C-182 204.36328125 -182 204.36328125 -184.125 204.375 C-184.82625 204.39175781 -185.5275 204.40851563 -186.25 204.42578125 C-186.86875 204.30589844 -187.4875 204.18601562 -188.125 204.0625 C-190.50182579 200.49726132 -190.38328774 198.95099297 -190.4034729 194.71791077 C-190.4092653 194.07104527 -190.4150577 193.42417978 -190.42102563 192.7577123 C-190.43806117 190.5845998 -190.44090565 188.41169933 -190.44384766 186.23852539 C-190.45314666 184.68074524 -190.4633153 183.12297006 -190.47428894 181.56520081 C-190.50168998 177.31930567 -190.51678204 173.07344398 -190.52971697 168.82748342 C-190.54539794 164.35194626 -190.57220036 159.87647546 -190.5977478 155.40098572 C-190.64466241 146.88041744 -190.68130261 138.35983607 -190.71442068 129.83920425 C-190.75208116 120.28989771 -190.80186313 110.74066719 -190.85240483 101.19142163 C-191.02771086 67.81494843 -191.15432272 34.43947962 -191.125 1.0625 C-189.68792953 2.01390271 -188.25173883 2.96663435 -186.81591797 3.91992188 C-186.01604462 4.45033081 -185.21617126 4.98073975 -184.39205933 5.52722168 C-181.58494871 7.42822887 -178.91422149 9.46654736 -176.25 11.5625 C-170.8966242 15.73358461 -165.46845984 19.79361867 -160 23.8125 C-159.19312744 24.40554932 -158.38625488 24.99859863 -157.55493164 25.60961914 C-155.07889962 27.4280812 -152.60197978 29.2453292 -150.125 31.0625 C-139.57781352 38.80717921 -129.06431894 46.59281537 -118.60571289 54.45678711 C-112.96895362 58.69106764 -107.30644722 62.88841156 -101.625 67.0625 C-92.59120187 73.70150438 -83.61926642 80.42082412 -74.65869141 87.15820312 C-70.4000664 90.35894267 -66.13726915 93.55411592 -61.875 96.75 C-60.20182147 98.00520641 -58.52864436 99.2604147 -56.85546875 100.515625 C-53.92219923 102.71572484 -50.98750239 104.91388488 -48.05078125 107.109375 C-46.76291313 108.07277271 -45.47515102 109.03631214 -44.1875 110 C-43.56278809 110.46752686 -42.93807617 110.93505371 -42.29443359 111.41674805 C-38.40669042 114.33280018 -34.53672184 117.27119655 -30.67578125 120.22265625 C-29.73532959 120.94138916 -28.79487793 121.66012207 -27.82592773 122.40063477 C-25.9842578 123.80953215 -24.14386112 125.22009594 -22.30493164 126.63256836 C-21.03637329 127.60335327 -21.03637329 127.60335327 -19.7421875 128.59375 C-18.99565918 129.16673828 -18.24913086 129.73972656 -17.47998047 130.33007812 C-14.75436537 132.3351543 -11.94469671 134.19273652 -9.125 136.0625 C-9.12445523 135.39197003 -9.12391047 134.72144007 -9.12334919 134.03059101 C-9.10838078 117.71380614 -9.06593185 101.39734764 -8.99290943 85.08072376 C-8.95825865 77.19009626 -8.93290382 69.29964346 -8.92944336 61.40893555 C-8.92640356 54.53123312 -8.90591135 47.65384184 -8.86447543 40.7762596 C-8.84314467 37.13465202 -8.83054489 33.49348678 -8.83884621 29.85181618 C-8.84778745 25.78594709 -8.81776429 21.7212598 -8.78442383 17.65551758 C-8.79304947 16.44854721 -8.80167511 15.24157684 -8.81056213 13.99803162 C-8.68533868 4.91289697 -8.68533868 4.91289697 -5.77909851 1.77934265 C-3.125 0.0625 -3.125 0.0625 0 0 Z " fill="#EA27C9" transform="translate(598.125,358.9375)"/>
<path d="M0 0 C95.37 0 190.74 0 289 0 C289 94.05 289 188.1 289 285 C193.63 285 98.26 285 0 285 C0 190.95 0 96.9 0 0 Z M12 12 C12 98.13 12 184.26 12 273 C99.12 273 186.24 273 276 273 C276 186.87 276 100.74 276 12 C188.88 12 101.76 12 12 12 Z " fill="#EB26CA" transform="translate(665,321)"/>
<path d="M0 0 C95.37 0 190.74 0 289 0 C289 94.05 289 188.1 289 285 C193.63 285 98.26 285 0 285 C0 190.95 0 96.9 0 0 Z M12 12 C12 98.13 12 184.26 12 273 C99.45 273 186.9 273 277 273 C277 186.87 277 100.74 277 12 C189.55 12 102.1 12 12 12 Z " fill="#EB24C9" transform="translate(70,321)"/>
<path d="M0 0 C4.90113132 2.3863587 8.10457529 6.30871302 9.8515625 11.37109375 C10.73427728 18.73545707 10.77719542 24.91015624 6.8515625 31.37109375 C5.1328125 33.234375 5.1328125 33.234375 3.3515625 34.68359375 C2.46984375 35.42029297 2.46984375 35.42029297 1.5703125 36.171875 C-2.80496987 39.22462884 -8.04524916 38.92257986 -13.1484375 38.37109375 C-18.54232387 36.55932769 -21.90531253 32.85423709 -25.1484375 28.37109375 C-27.25264042 22.05848499 -27.32360513 14.03458568 -24.6484375 7.87109375 C-19.24853276 -0.97875013 -9.6032838 -2.81114308 0 0 Z " fill="#202021" transform="translate(686.1484375,647.62890625)"/>
<path d="M0 0 C2.64 0 5.28 0 8 0 C8.44653931 0.90093384 8.44653931 0.90093384 8.90209961 1.82006836 C10.24516208 4.52691229 11.59128848 7.23222092 12.9375 9.9375 C13.40607422 10.88302734 13.87464844 11.82855469 14.35742188 12.80273438 C14.80537109 13.70185547 15.25332031 14.60097656 15.71484375 15.52734375 C16.12855225 16.35999756 16.54226074 17.19265137 16.96850586 18.05053711 C17.85030942 19.94841137 17.85030942 19.94841137 19 21 C19.29769287 20.39937744 19.59538574 19.79875488 19.90209961 19.17993164 C21.24516208 16.47308771 22.59128848 13.76777908 23.9375 11.0625 C24.40607422 10.11697266 24.87464844 9.17144531 25.35742188 8.19726562 C26.0293457 6.84858398 26.0293457 6.84858398 26.71484375 5.47265625 C27.33540649 4.22367554 27.33540649 4.22367554 27.96850586 2.94946289 C29 1 29 1 30 0 C32.31 0 34.62 0 37 0 C37 12.54 37 25.08 37 38 C35.02 38 33.04 38 31 38 C30.505 26.12 30.505 26.12 30 14 C27.20304195 19.54209461 27.20304195 19.54209461 24.43652344 25.09936523 C24.08106445 25.78716064 23.72560547 26.47495605 23.359375 27.18359375 C23.00327148 27.89056396 22.64716797 28.59753418 22.28027344 29.32592773 C21 31 21 31 17 32 C13.7 26.06 10.4 20.12 7 14 C6.67 21.92 6.34 29.84 6 38 C4.02 38 2.04 38 0 38 C0 25.46 0 12.92 0 0 Z " fill="#262627" transform="translate(615,647)"/>
<path d="M0 0 C19.5625 0 19.5625 0 24.4375 4 C27.40453115 7.79779987 27.50510896 11.30970256 27 16 C25.30808963 19.80679833 23.32225221 21.60440905 20 24 C20.5053125 24.84304688 21.010625 25.68609375 21.53125 26.5546875 C22.1809375 27.65039062 22.830625 28.74609375 23.5 29.875 C24.1496875 30.96554687 24.799375 32.05609375 25.46875 33.1796875 C27 36 27 36 27 38 C22.70026064 39.05299739 22.70026064 39.05299739 20 38 C17.04065512 34.19512802 13 28.98196766 13 24 C10.69 24 8.38 24 6 24 C6 28.62 6 33.24 6 38 C4.02 38 2.04 38 0 38 C0 25.46 0 12.92 0 0 Z " fill="#282829" transform="translate(242,647)"/>
<path d="M0 0 C2.31 0 4.62 0 7 0 C8.84015498 3.2878978 10.67095047 6.58091326 12.5 9.875 C13.02464844 10.81214844 13.54929687 11.74929688 14.08984375 12.71484375 C14.58613281 13.61074219 15.08242188 14.50664063 15.59375 15.4296875 C16.05458984 16.25710449 16.51542969 17.08452148 16.99023438 17.93701172 C18 20 18 20 18 22 C18.66 22 19.32 22 20 22 C20.24492188 21.18273437 20.48984375 20.36546875 20.7421875 19.5234375 C22.22547612 15.36838676 24.11800949 11.54678711 26.125 7.625 C26.49753906 6.88894531 26.87007812 6.15289063 27.25390625 5.39453125 C28.1656122 3.59449642 29.08229932 1.79698598 30 0 C32.31 0 34.62 0 37 0 C37 12.54 37 25.08 37 38 C35.02 38 33.04 38 31 38 C30.505 26.12 30.505 26.12 30 14 C27.03 19.94 24.06 25.88 21 32 C16 31 16 31 14.60620117 29.32592773 C14.25533447 28.61895752 13.90446777 27.9119873 13.54296875 27.18359375 C13.19000732 26.49579834 12.8370459 25.80800293 12.47338867 25.09936523 C12.04904541 24.22094971 11.62470215 23.34253418 11.1875 22.4375 C9.805625 19.653125 8.42375 16.86875 7 14 C6.67 21.92 6.34 29.84 6 38 C4.02 38 2.04 38 0 38 C0 25.46 0 12.92 0 0 Z " fill="#1F1F20" transform="translate(705,647)"/>
<path d="M0 0 C19.4375 0 19.4375 0 24.5625 4 C26.65001324 8.35654937 26.78547183 12.25606122 26 17 C24.1875 20.125 24.1875 20.125 22 22 C21.01 22 20.02 22 19 22 C21.64 27.28 24.28 32.56 27 38 C24.69 38 22.38 38 20 38 C18.07421875 35.91796875 18.07421875 35.91796875 16.6875 33.1875 C16.21699219 32.29417969 15.74648438 31.40085937 15.26171875 30.48046875 C14.84535156 29.66191406 14.42898438 28.84335937 14 28 C13.34 27.01 12.68 26.02 12 25 C10.02 24.67 8.04 24.34 6 24 C6 28.62 6 33.24 6 38 C4.02 38 2.04 38 0 38 C0 25.46 0 12.92 0 0 Z " fill="#1F1F20" transform="translate(532,647)"/>
<path d="M0 0 C7 0 7 0 8.8984375 1.6953125 C9.38570312 2.49710938 9.87296875 3.29890625 10.375 4.125 C11.22384766 5.47078125 11.22384766 5.47078125 12.08984375 6.84375 C12.72019531 7.8853125 13.35054687 8.926875 14 10 C15.18735671 11.8527661 16.38672674 13.69733901 17.58813477 15.54101562 C19.4074461 18.35079336 21.20110001 21.17711079 23 24 C23.33 16.08 23.66 8.16 24 0 C26.31 0 28.62 0 31 0 C31 12.54 31 25.08 31 38 C23 38 23 38 20.73071289 35.82861328 C19.86047485 34.33950439 19.86047485 34.33950439 18.97265625 32.8203125 C18.32619141 31.74652344 17.67972656 30.67273438 17.01367188 29.56640625 C16.36978516 28.43074219 15.72589844 27.29507813 15.0625 26.125 C14.39154297 24.99707031 13.72058594 23.86914062 13.02929688 22.70703125 C8.68937703 15.37875406 8.68937703 15.37875406 7 12 C6.67 20.58 6.34 29.16 6 38 C4.02 38 2.04 38 0 38 C0 25.46 0 12.92 0 0 Z " fill="#1A1A1A" transform="translate(163,647)"/>
<path d="M0 0 C8 0 8 0 9.94628906 1.63305664 C10.38166992 2.38449951 10.81705078 3.13594238 11.265625 3.91015625 C11.76320313 4.73580078 12.26078125 5.56144531 12.7734375 6.41210938 C13.26070312 7.28673828 13.74796875 8.16136719 14.25 9.0625 C14.75273438 9.91005859 15.25546875 10.75761719 15.7734375 11.63085938 C17.21314051 14.07119366 18.61047119 16.53080825 20 19 C21.32 21.31 22.64 23.62 24 26 C24.33 17.42 24.66 8.84 25 0 C26.98 0 28.96 0 31 0 C31 12.54 31 25.08 31 38 C24 38 24 38 22.13671875 36.375 C21.65847656 35.59125 21.18023438 34.8075 20.6875 34 C19.84058594 32.65808594 19.84058594 32.65808594 18.9765625 31.2890625 C17.99816406 29.66097656 17.99816406 29.66097656 17 28 C15.69511749 25.91993977 14.38156938 23.84549616 13.06787109 21.77099609 C11.02822465 18.52463051 9.01705735 15.26044886 7 12 C6.67 20.58 6.34 29.16 6 38 C4.02 38 2.04 38 0 38 C0 25.46 0 12.92 0 0 Z " fill="#363738" transform="translate(784,647)"/>
<path d="M0 0 C7.92 0 15.84 0 24 0 C24 1.98 24 3.96 24 6 C18.39 6 12.78 6 7 6 C7 9.3 7 12.6 7 16 C11.95 16 16.9 16 22 16 C22 17.98 22 19.96 22 22 C17.05 22 12.1 22 7 22 C7 25.3 7 28.6 7 32 C12.61 32 18.22 32 24 32 C24 33.98 24 35.96 24 38 C16.08 38 8.16 38 0 38 C0 25.46 0 12.92 0 0 Z " fill="#272728" transform="translate(384,647)"/>
<path d="M0 0 C7.59 0 15.18 0 23 0 C23 1.98 23 3.96 23 6 C17.72 6 12.44 6 7 6 C7 9.3 7 12.6 7 16 C11.62 16 16.24 16 21 16 C21 17.98 21 19.96 21 22 C16.38 22 11.76 22 7 22 C7 25.3 7 28.6 7 32 C12.28 32 17.56 32 23 32 C23 33.98 23 35.96 23 38 C15.41 38 7.82 38 0 38 C0 25.46 0 12.92 0 0 Z " fill="#242425" transform="translate(500,647)"/>
<path d="M0 0 C7.59 0 15.18 0 23 0 C23 1.98 23 3.96 23 6 C17.72 6 12.44 6 7 6 C7 9.3 7 12.6 7 16 C11.62 16 16.24 16 21 16 C21 17.98 21 19.96 21 22 C16.38 22 11.76 22 7 22 C7 25.3 7 28.6 7 32 C12.28 32 17.56 32 23 32 C23 33.98 23 35.96 23 38 C15.41 38 7.82 38 0 38 C0 25.46 0 12.92 0 0 Z " fill="#242425" transform="translate(431,647)"/>
<path d="M0 0 C7.59 0 15.18 0 23 0 C23 1.98 23 3.96 23 6 C17.39 6 11.78 6 6 6 C6 9.3 6 12.6 6 16 C10.95 16 15.9 16 21 16 C21 17.98 21 19.96 21 22 C16.05 22 11.1 22 6 22 C6 25.3 6 28.6 6 32 C11.61 32 17.22 32 23 32 C23 33.98 23 35.96 23 38 C15.41 38 7.82 38 0 38 C0 25.46 0 12.92 0 0 Z " fill="#202021" transform="translate(753,647)"/>
<path d="M0 0 C1.98 0 3.96 0 6 0 C6.01981934 0.79696289 6.03963867 1.59392578 6.06005859 2.41503906 C6.15533248 6.02702472 6.26500307 9.63843399 6.375 13.25 C6.4059375 14.50425781 6.436875 15.75851562 6.46875 17.05078125 C6.50742187 18.25605469 6.54609375 19.46132813 6.5859375 20.703125 C6.6173584 21.81333008 6.6487793 22.92353516 6.68115234 24.06738281 C6.99089737 26.9162781 7.43462483 28.6230776 9 31 C12.17821535 32.58910767 15.53939729 32.40420974 19 32 C21.67431489 30.18836733 21.95920359 29.12238923 23 26 C23.14986411 24.0093556 23.24828038 22.01464609 23.31640625 20.01953125 C23.35830078 18.85615234 23.40019531 17.69277344 23.44335938 16.49414062 C23.48267578 15.27919922 23.52199219 14.06425781 23.5625 12.8125 C23.60568359 11.58595703 23.64886719 10.35941406 23.69335938 9.09570312 C23.7995309 6.06391619 23.90157952 3.03204685 24 0 C25.98 0 27.96 0 30 0 C30.08777806 4.16653186 30.14065272 8.33282276 30.1875 12.5 C30.21263672 13.67304687 30.23777344 14.84609375 30.26367188 16.0546875 C30.32029381 22.77382417 30.01625245 27.94605255 27 34 C22.24324199 38.52472103 19.00671534 39.36054615 12.609375 39.27734375 C8.42017417 38.83208438 6.34274349 37.59233169 3 35 C0.2601931 30.55346091 -0.36179278 27.2550561 -0.29296875 22.0703125 C-0.28330078 20.78125 -0.27363281 19.4921875 -0.26367188 18.1640625 C-0.23861188 16.81770214 -0.21321712 15.47134797 -0.1875 14.125 C-0.17243504 12.75522295 -0.15874982 11.38542998 -0.14648438 10.015625 C-0.11121379 6.67667642 -0.06191896 3.33854325 0 0 Z " fill="#232324" transform="translate(310,647)"/>
<path d="M0 0 C1.98 0 3.96 0 6 0 C6.01981934 0.79696289 6.03963867 1.59392578 6.06005859 2.41503906 C6.15533248 6.02702472 6.26500307 9.63843399 6.375 13.25 C6.4059375 14.50425781 6.436875 15.75851562 6.46875 17.05078125 C6.50742188 18.25605469 6.54609375 19.46132813 6.5859375 20.703125 C6.6173584 21.81333008 6.6487793 22.92353516 6.68115234 24.06738281 C6.99089737 26.9162781 7.43462483 28.6230776 9 31 C12.14341993 32.57170996 15.55771451 32.23175783 19 32 C19.99 31.67 20.98 31.34 22 31 C22.85294775 27.24520868 23.18379707 23.66988506 23.31640625 19.82421875 C23.35830078 18.66728516 23.40019531 17.51035156 23.44335938 16.31835938 C23.48267578 15.12017578 23.52199219 13.92199219 23.5625 12.6875 C23.60568359 11.46998047 23.64886719 10.25246094 23.69335938 8.99804688 C23.79921496 5.9988053 23.90129726 2.99948409 24 0 C25.98 0 27.96 0 30 0 C30.08755672 4.35403865 30.14057969 8.70784877 30.1875 13.0625 C30.21263672 14.29162109 30.23777344 15.52074219 30.26367188 16.78710938 C30.3161245 23.27375122 30.35285969 28.35098759 27 34 C21.90615565 38.72112404 18.55861402 39.36235097 11.765625 39.2734375 C7.82353246 38.88368259 5.82561554 37.75497515 3 35 C-1.04198008 28.24096442 -0.33862874 21.2390648 -0.1875 13.5625 C-0.17396484 12.25861328 -0.16042969 10.95472656 -0.14648438 9.61132812 C-0.11127334 6.40712378 -0.06202094 3.20377895 0 0 Z " fill="#151515" transform="translate(203,647)"/>
<path d="M0 0 C3.5177209 0.96765785 5.29745133 2.38463057 7.41796875 5.328125 C9.38075031 9.93104019 9.26996141 14.79406406 8.4140625 19.6640625 C6.57439298 23.21739679 5.0000893 25.77143725 1.4140625 27.6640625 C-2.36810129 28.07666219 -4.83289336 27.98924065 -8.3359375 26.4765625 C-11.70133983 23.76554396 -13.33869339 21.07086231 -14.08984375 16.796875 C-14.1880011 11.75813094 -14.23896071 7.61726753 -11.2109375 3.4140625 C-7.83696471 0.16801285 -4.58704035 -0.37416945 0 0 Z " fill="#FCFCFC" transform="translate(680.5859375,652.3359375)"/>
<path d="M0 0 C17 0 17 0 24 3 C26.9580812 6.3397691 27.58664298 9.5342973 27.42578125 13.99609375 C26.64491521 17.67117889 24.72235293 19.46757867 22 22 C21.01 22 20.02 22 19 22 C21.64 27.28 24.28 32.56 27 38 C24.69 38 22.38 38 20 38 C19.49210937 37.01257813 18.98421875 36.02515625 18.4609375 35.0078125 C17.76662143 33.71300686 17.0712532 32.41876503 16.375 31.125 C16.04371094 30.47402344 15.71242188 29.82304688 15.37109375 29.15234375 C13.42999493 25.59976666 12.5610628 24.24772463 8.7265625 22.5546875 C7.82679688 22.37164063 6.92703125 22.18859375 6 22 C6 21.01 6 20.02 6 19 C6.60328125 18.95101562 7.2065625 18.90203125 7.828125 18.8515625 C8.62734375 18.77679687 9.4265625 18.70203125 10.25 18.625 C11.03890625 18.55539062 11.8278125 18.48578125 12.640625 18.4140625 C15.37704633 18.04970652 15.37704633 18.04970652 19 16 C19 13.03 19 10.06 19 7 C14.71 6.67 10.42 6.34 6 6 C6 9.96 6 13.92 6 18 C5.67 18 5.34 18 5 18 C4.93941406 17.21753906 4.87882812 16.43507813 4.81640625 15.62890625 C4.73261719 14.61699219 4.64882813 13.60507812 4.5625 12.5625 C4.48128906 11.55316406 4.40007812 10.54382813 4.31640625 9.50390625 C4.26788532 7.06359221 4.26788532 7.06359221 3 6 C2.34 16.23 1.68 26.46 1 37 C2.32 37 3.64 37 5 37 C5 32.38 5 27.76 5 23 C5.33 23 5.66 23 6 23 C6 27.95 6 32.9 6 38 C4.02 38 2.04 38 0 38 C0 25.46 0 12.92 0 0 Z " fill="#1F1F20" transform="translate(349,647)"/>
<path d="M0 0 C2.31 0 4.62 0 7 0 C7.2673999 0.78238037 7.5347998 1.56476074 7.81030273 2.37084961 C9.01635209 5.89410746 10.22686365 9.41581581 11.4375 12.9375 C11.85837891 14.16919922 12.27925781 15.40089844 12.71289062 16.66992188 C13.11572266 17.83974609 13.51855469 19.00957031 13.93359375 20.21484375 C14.4913147 21.84087524 14.4913147 21.84087524 15.06030273 23.49975586 C15.76814287 25.90585315 15.76814287 25.90585315 17 27 C17.2673999 26.25314941 17.5347998 25.50629883 17.81030273 24.73681641 C19.0180808 21.36574796 20.22776589 17.99536697 21.4375 14.625 C21.85837891 13.449375 22.27925781 12.27375 22.71289062 11.0625 C23.11572266 9.94101562 23.51855469 8.81953125 23.93359375 7.6640625 C24.30540771 6.62717285 24.67722168 5.5902832 25.06030273 4.52197266 C26 2 26 2 27 0 C28.98 0 30.96 0 33 0 C30.85592366 8.63043197 27.95391255 16.87463227 24.8125 25.1875 C24.34395408 26.43798366 23.87585249 27.6886339 23.40820312 28.93945312 C22.27647115 31.96129417 21.14033289 34.98139651 20 38 C17.69 38 15.38 38 13 38 C11.1445353 32.91113754 9.29322861 27.82078954 7.44580078 22.72900391 C6.81641577 20.99616433 6.18588584 19.26374016 5.55419922 17.53173828 C4.6477179 15.04567413 3.74533134 12.55815716 2.84375 10.0703125 C2.55939087 9.29317902 2.27503174 8.51604553 1.98205566 7.71536255 C0 2.22774341 0 2.22774341 0 0 Z " fill="#242425" transform="translate(460,647)"/>
<path d="M0 0 C9.57 0 19.14 0 29 0 C29 1.98 29 3.96 29 6 C25.37 6 21.74 6 18 6 C18 16.56 18 27.12 18 38 C15.69 38 13.38 38 11 38 C11 27.44 11 16.88 11 6 C7.37 6 3.74 6 0 6 C0 4.02 0 2.04 0 0 Z " fill="#1B1B1B" transform="translate(274,647)"/>
<path d="M0 0 C3.1875 -0.5 3.1875 -0.5 7 0 C9.20761572 2.3613494 10.51977204 5.14561905 12 8 C12.92464375 9.50795895 13.86163016 11.00843947 14.8125 12.5 C15.534375 13.655 16.25625 14.81 17 16 C19.97 10.72 22.94 5.44 26 0 C28.31 0 30.62 0 33 0 C31.77454953 2.33534978 30.54457253 4.66814699 29.3125 7 C28.94890381 7.69480469 28.58530762 8.38960937 28.21069336 9.10546875 C26.35721037 12.60945965 24.46369607 15.83607107 22.0625 19 C18.47715514 24.39004865 19.08981968 31.72895323 19 38 C17.02 38 15.04 38 13 38 C13.06703125 37.17242188 13.1340625 36.34484375 13.203125 35.4921875 C13.36814302 22.75829689 7.54444691 13.57748969 1.08569336 2.89501953 C0 1 0 1 0 0 Z " fill="#202021" transform="translate(562,647)"/>
<path d="M0 0 C9.57 0 19.14 0 29 0 C29 1.98 29 3.96 29 6 C25.04 6 21.08 6 17 6 C17 16.56 17 27.12 17 38 C15.02 38 13.04 38 11 38 C11 27.44 11 16.88 11 6 C7.37 6 3.74 6 0 6 C0 4.02 0 2.04 0 0 Z " fill="#131313" transform="translate(822,647)"/>
<path d="M0 0 C23.43 0 46.86 0 71 0 C71 1.65 71 3.3 71 5 C47.57 5 24.14 5 0 5 C0 3.35 0 1.7 0 0 Z " fill="#1A191A" transform="translate(71,665)"/>
<path d="M0 0 C23.1 0 46.2 0 70 0 C70 1.65 70 3.3 70 5 C46.9 5 23.8 5 0 5 C0 3.35 0 1.7 0 0 Z " fill="#1E1E1F" transform="translate(883,665)"/>
<path d="M0 0 C2.31 0 4.62 0 7 0 C7 12.54 7 25.08 7 38 C-1 38 -1 38 -3.3125 35.76953125 C-3.869375 34.79371094 -4.42625 33.81789063 -5 32.8125 C-5.5775 31.84957031 -6.155 30.88664063 -6.75 29.89453125 C-8.01393103 26.96774095 -8.27574962 25.14239672 -8 22 C-7.01 21.67 -6.02 21.34 -5 21 C-3.68 22.65 -2.36 24.3 -1 26 C-0.67 17.42 -0.34 8.84 0 0 Z " fill="#2A2A2B" transform="translate(187,647)"/>
<path d="M0 0 C1.98 0 3.96 0 6 0 C6 12.54 6 25.08 6 38 C-1 38 -1 38 -3.109375 35.98828125 C-3.65078125 35.10527344 -4.1921875 34.22226562 -4.75 33.3125 C-5.30171875 32.44238281 -5.8534375 31.57226562 -6.421875 30.67578125 C-6.94265625 29.79277344 -7.4634375 28.90976562 -8 28 C-8.57492187 27.11183594 -9.14984375 26.22367188 -9.7421875 25.30859375 C-11 23 -11 23 -10.375 20.75 C-9 19 -9 19 -6 18 C-4.35 20.64 -2.7 23.28 -1 26 C-0.67 17.42 -0.34 8.84 0 0 Z " fill="#272728" transform="translate(809,647)"/>
<path d="M0 0 C3.3 0 6.6 0 10 0 C9.01 1.485 9.01 1.485 8 3 C8.63808594 3.12117187 9.27617187 3.24234375 9.93359375 3.3671875 C11.17302734 3.61855469 11.17302734 3.61855469 12.4375 3.875 C13.26121094 4.03742187 14.08492188 4.19984375 14.93359375 4.3671875 C15.61550781 4.57601562 16.29742187 4.78484375 17 5 C18.4783226 7.95664519 18.06032783 10.74229737 18 14 C17.01 14.33 16.02 14.66 15 15 C14.67 15.99 14.34 16.98 14 18 C13.0925 18.12375 12.185 18.2475 11.25 18.375 C7.32365264 19.0545249 7.32365264 19.0545249 4 21 C3.29211565 24.33975372 3.29211565 24.33975372 3.25 28.125 C3.19328125 29.40632812 3.1365625 30.68765625 3.078125 32.0078125 C3.05234375 32.99523437 3.0265625 33.98265625 3 35 C2.01 35 1.02 35 0 35 C0 23.45 0 11.9 0 0 Z " fill="#2D2D2E" transform="translate(244,649)"/>
<path d="M0 0 C2.31 0 4.62 0 7 0 C7 12.54 7 25.08 7 38 C5.02 38 3.04 38 1 38 C0.67 30.08 0.34 22.16 0 14 C-1.32 16.31 -2.64 18.62 -4 21 C-4.33 20.34 -4.66 19.68 -5 19 C-4.0337499 16.98347806 -3.03291676 14.98320018 -2 13 C-2 12.34 -2 11.68 -2 11 C-2.66 10.67 -3.32 10.34 -4 10 C-4.27263672 10.92232422 -4.27263672 10.92232422 -4.55078125 11.86328125 C-4.80214844 12.67152344 -5.05351563 13.47976563 -5.3125 14.3125 C-5.55613281 15.11300781 -5.79976562 15.91351562 -6.05078125 16.73828125 C-7.04182023 19.09964573 -8.08074943 20.33879993 -10 22 C-9.42770367 16.80771145 -6.9017839 12.6896297 -4.4375 8.1875 C-4.01275391 7.39923828 -3.58800781 6.61097656 -3.15039062 5.79882812 C-2.10603446 3.8626622 -1.0557923 1.92994633 0 0 Z " fill="#1C1C1D" transform="translate(645,647)"/>
<path d="M0 0 C1.485 0.99 1.485 0.99 3 2 C3.33 1.67 3.66 1.34 4 1 C5.7872057 0.84864056 7.58161876 0.77824222 9.375 0.75 C10.84066406 0.71132813 10.84066406 0.71132813 12.3359375 0.671875 C15 1 15 1 16.8203125 2.296875 C18.84061184 5.21359855 18.48679298 7.59244913 18 11 C14.99451666 14.00548334 12.25631312 14.16182925 8.1875 14.1875 C6.79108728 14.13966204 5.39482079 14.08204828 4 14 C4 14.99 4 15.98 4 17 C5.98 17.33 7.96 17.66 10 18 C10 18.33 10 18.66 10 19 C8.35 19 6.7 19 5 19 C5 23.62 5 28.24 5 33 C3.02 32.67 1.04 32.34 -1 32 C-0.67 21.44 -0.34 10.88 0 0 Z " fill="#39393A" transform="translate(351,652)"/>
<path d="M0 0 C1.98 0 3.96 0 6 0 C6.08755672 4.35403865 6.14057969 8.70784877 6.1875 13.0625 C6.21263672 14.29162109 6.23777344 15.52074219 6.26367188 16.78710938 C6.31602959 23.26201372 6.34979846 28.35737832 3 34 C1.0625 35.3125 1.0625 35.3125 -1 36 C-1.598125 36.37125 -2.19625 36.7425 -2.8125 37.125 C-5.89997177 38.35998871 -8.71225123 38.12645188 -12 38 C-11.67 36.35 -11.34 34.7 -11 33 C-8.03 32.34 -5.06 31.68 -2 31 C-1.14705225 27.24520868 -0.81620293 23.66988506 -0.68359375 19.82421875 C-0.64169922 18.66728516 -0.59980469 17.51035156 -0.55664062 16.31835938 C-0.51732422 15.12017578 -0.47800781 13.92199219 -0.4375 12.6875 C-0.39431641 11.46998047 -0.35113281 10.25246094 -0.30664062 8.99804688 C-0.20078504 5.9988053 -0.09870274 2.99948409 0 0 Z " fill="#262627" transform="translate(227,647)"/>
<path d="M0 0 C5.61 0 11.22 0 17 0 C17.66 0.66 18.32 1.32 19 2 C18.67 2.99 18.34 3.98 18 5 C18.33 5.66 18.66 6.32 19 7 C14.71 6.67 10.42 6.34 6 6 C6 9.96 6 13.92 6 18 C5.67 18 5.34 18 5 18 C4.93941406 17.21753906 4.87882812 16.43507813 4.81640625 15.62890625 C4.73261719 14.61699219 4.64882813 13.60507812 4.5625 12.5625 C4.48128906 11.55316406 4.40007812 10.54382813 4.31640625 9.50390625 C4.26788532 7.06359221 4.26788532 7.06359221 3 6 C2.34 16.23 1.68 26.46 1 37 C2.32 37 3.64 37 5 37 C5 32.38 5 27.76 5 23 C5.33 23 5.66 23 6 23 C6 27.95 6 32.9 6 38 C4.02 38 2.04 38 0 38 C0 25.46 0 12.92 0 0 Z " fill="#171717" transform="translate(349,647)"/>
<path d="M0 0 C8.91 0 17.82 0 27 0 C27 0.99 27 1.98 27 3 C23.37 3.33 19.74 3.66 16 4 C15.67 14.23 15.34 24.46 15 35 C14.01 35 13.02 35 12 35 C11.67 24.77 11.34 14.54 11 4 C7.37 3.67 3.74 3.34 0 3 C0 2.01 0 1.02 0 0 Z " fill="#282829" transform="translate(275,649)"/>
<path d="M0 0 C8.58 0 17.16 0 26 0 C26 0.99 26 1.98 26 3 C22.37 3.33 18.74 3.66 15 4 C14.67 14.23 14.34 24.46 14 35 C13.01 35 12.02 35 11 35 C10.67 24.77 10.34 14.54 10 4 C6.7 3.67 3.4 3.34 0 3 C0 2.01 0 1.02 0 0 Z " fill="#282829" transform="translate(824,649)"/>
<path d="M0 0 C1.5675 -0.061875 3.135 -0.12375 4.75 -0.1875 C6.07257812 -0.23970703 6.07257812 -0.23970703 7.421875 -0.29296875 C10.44671583 0.05076316 11.75583602 1.00227459 14 3 C13.25 9.75 13.25 9.75 11 12 C7.31975395 12.27629475 3.69505443 12.0859315 0 12 C0 8.04 0 4.08 0 0 Z " fill="#FCFCFC" transform="translate(538,653)"/>
<path d="M0 0 C1.98 0 3.96 0 6 0 C9.07692308 5.41538462 9.07692308 5.41538462 8.6875 8.375 C8.460625 8.91125 8.23375 9.4475 8 10 C6.35 10.33 4.7 10.66 3 11 C3 18.92 3 26.84 3 35 C2.01 35 1.02 35 0 35 C0 23.45 0 11.9 0 0 Z " fill="#262627" transform="translate(706,649)"/>
<path d="M0 0 C23.1 0 46.2 0 70 0 C70 1.65 70 3.3 70 5 C68.47100319 4.75885216 68.47100319 4.75885216 66.91111755 4.51283264 C63.36887234 4.04836719 59.99026308 3.84493328 56.42211914 3.79467773 C55.16134048 3.77473251 53.90056183 3.75478729 52.60157776 3.73423767 C51.24610513 3.71726002 49.89063125 3.70038097 48.53515625 3.68359375 C47.13267957 3.66299241 45.73020865 3.64199517 44.32774353 3.62062073 C40.65685732 3.56572807 36.98591816 3.51617577 33.31494141 3.46777344 C29.56082511 3.41731707 25.80678462 3.36175767 22.05273438 3.30664062 C14.70188732 3.19946105 7.35097674 3.09792882 0 3 C0 2.01 0 1.02 0 0 Z " fill="#282829" transform="translate(72,665)"/>
<path d="M0 0 C1.65 0 3.3 0 5 0 C6.58203125 1.75 6.58203125 1.75 7.8125 4 C8.23144531 4.7425 8.65039062 5.485 9.08203125 6.25 C9.38496094 6.8275 9.68789062 7.405 10 8 C9.01 8.99 8.02 9.98 7 11 C6.34 10.34 5.68 9.68 5 9 C4.34 9 3.68 9 3 9 C3 17.58 3 26.16 3 35 C2.01 35 1.02 35 0 35 C0 23.45 0 11.9 0 0 Z " fill="#272728" transform="translate(165,649)"/>
<path d="M0 0 C1.588125 -0.061875 3.17625 -0.12375 4.8125 -0.1875 C6.15248047 -0.23970703 6.15248047 -0.23970703 7.51953125 -0.29296875 C10 0 10 0 11.80078125 1.2890625 C13.79266048 4.13089671 13.36429678 6.66061282 13 10 C8.61501596 12.92332269 5.2225328 12.1356502 0 12 C0 8.04 0 4.08 0 0 Z " fill="#FCFCFC" transform="translate(356,653)"/>
<path d="M0 0 C2.1346875 -0.0309375 2.1346875 -0.0309375 4.3125 -0.0625 C5.51326172 -0.07990234 5.51326172 -0.07990234 6.73828125 -0.09765625 C9 0 9 0 12 1 C13.52150158 4.04300316 13.23899393 6.654085 13 10 C8.61501596 12.92332269 5.2225328 12.1356502 0 12 C0 8.04 0 4.08 0 0 Z " fill="#FCFCFC" transform="translate(249,653)"/>
<path d="M0 0 C0.33 0 0.66 0 1 0 C1.33 4.62 1.66 9.24 2 14 C2.33 12.68 2.66 11.36 3 10 C3.66 10 4.32 10 5 10 C5 18.91 5 27.82 5 37 C3.35 37 1.7 37 0 37 C0 24.79 0 12.58 0 0 Z " fill="#171718" transform="translate(785,648)"/>
<path d="M0 0 C2.31 0 4.62 0 7 0 C7 12.54 7 25.08 7 38 C5.02 38 3.04 38 1 38 C1 29.42 1 20.84 1 12 C1.33 12 1.66 12 2 12 C2 20.25 2 28.5 2 37 C2.99 37 3.98 37 5 37 C5 25.45 5 13.9 5 2 C3.68 2 2.36 2 1 2 C1 2.99 1 3.98 1 5 C0.01 5.33 -0.98 5.66 -2 6 C-1.34 4.02 -0.68 2.04 0 0 Z " fill="#19191A" transform="translate(735,647)"/>
<path d="M0 0 C1.98 0 3.96 0 6 0 C6 12.54 6 25.08 6 38 C3.69 38 1.38 38 -1 38 C-0.02885254 37.4898938 -0.02885254 37.4898938 0.96191406 36.96948242 C3.43489215 34.57974665 3.50529388 32.9901413 3.60565186 29.6287384 C3.60688049 28.92238754 3.60810913 28.21603668 3.609375 27.48828125 C3.62591125 26.76005661 3.64244751 26.03183197 3.65948486 25.28153992 C3.70802197 22.95844135 3.72934669 20.6359975 3.75 18.3125 C3.77815518 16.73629508 3.80808199 15.16012074 3.83984375 13.58398438 C3.91378144 9.72271017 3.96332032 5.86180061 4 2 C3.01 2 2.02 2 1 2 C1 10.25 1 18.5 1 27 C0.67 27 0.34 27 0 27 C0 18.09 0 9.18 0 0 Z " fill="#0E0E0F" transform="translate(809,647)"/>
<path d="M0 0 C0.66 0.33 1.32 0.66 2 1 C2.18925261 6.39369931 2.14179115 10.93758456 0 16 C-4.92307692 20 -4.92307692 20 -8 20 C-8.23674663 16.60663158 -8.35121065 14.58026107 -6.5625 11.625 C-4.43789583 8.05566499 -4.349202 5.12058355 -4 1 C-3.34 1.99 -2.68 2.98 -2 4 C-1.34 2.68 -0.68 1.36 0 0 Z " fill="#282829" transform="translate(693,663)"/>
<path d="M0 0 C1.98 0 3.96 0 6 0 C6.0578304 4.45827926 6.09353855 8.9164628 6.125 13.375 C6.14175781 14.64601563 6.15851563 15.91703125 6.17578125 17.2265625 C6.18222656 18.43828125 6.18867188 19.65 6.1953125 20.8984375 C6.20578613 22.01911621 6.21625977 23.13979492 6.22705078 24.29443359 C6 27 6 27 4 29 C4 20.09 4 11.18 4 2 C3.01 2 2.02 2 1 2 C1 9.92 1 17.84 1 26 C0.67 26 0.34 26 0 26 C0 17.42 0 8.84 0 0 Z " fill="#1F1F20" transform="translate(227,647)"/>
<path d="M0 0 C1.98 0 3.96 0 6 0 C6 9.24 6 18.48 6 28 C3.76586987 24.64880481 3.76152238 23.5822245 3.8046875 19.67578125 C3.81113281 18.64775391 3.81757813 17.61972656 3.82421875 16.56054688 C3.84097656 15.48869141 3.85773438 14.41683594 3.875 13.3125 C3.88402344 12.22904297 3.89304687 11.14558594 3.90234375 10.02929688 C3.9259266 7.3526429 3.95883874 4.67643203 4 2 C3.01 2 2.02 2 1 2 C1 10.25 1 18.5 1 27 C0.67 27 0.34 27 0 27 C0 18.09 0 9.18 0 0 Z " fill="#181819" transform="translate(310,647)"/>
<path d="M0 0 C0.99 0 1.98 0 3 0 C3 7.92 3 15.84 3 24 C1.02 24.99 1.02 24.99 -1 26 C-1 26.66 -1 27.32 -1 28 C-1.66 27.67 -2.32 27.34 -3 27 C-2.01 25.515 -2.01 25.515 -1 24 C-0.63250611 21.38710506 -0.63250611 21.38710506 -0.5859375 18.45703125 C-0.54726563 17.38388672 -0.50859375 16.31074219 -0.46875 15.20507812 C-0.4378125 14.08552734 -0.406875 12.96597656 -0.375 11.8125 C-0.33632813 10.68134766 -0.29765625 9.55019531 -0.2578125 8.38476562 C-0.16347467 5.5900075 -0.07788348 2.79525722 0 0 Z " fill="#272728" transform="translate(335,649)"/>
<path d="M0 0 C1.5 1 1.5 1 3 3 C3.41803693 7.31971498 3.43320741 9.92838166 1.8125 13.9375 C-0.38010847 16.43253722 -1.74322102 16.73593684 -5 17 C-5.8125 15 -5.8125 15 -6 12 C-4.89737366 9.8500915 -3.62328173 7.93507619 -2.2265625 5.96484375 C-0.97462282 3.95934803 -0.44202395 2.30777622 0 0 Z " fill="#1E1E1F" transform="translate(266,652)"/>
<path d="M0 0 C2.16874252 0.50603992 3.99967627 0.99983813 6 2 C7.54023996 2.06950541 9.08334988 2.08452357 10.625 2.0625 C11.44226563 2.05347656 12.25953125 2.04445313 13.1015625 2.03515625 C13.72804688 2.02355469 14.35453125 2.01195312 15 2 C15 2.66 15 3.32 15 4 C13.02 4.99 11.04 5.98 9 7 C10.32 7.66 11.64 8.32 13 9 C6.53673535 9.45356243 3.39068413 8.59378942 -2 5 C-2 4.34 -2 3.68 -2 3 C-1.34 2.67 -0.68 2.34 0 2 C0 1.34 0 0.68 0 0 Z " fill="#1D1D1E" transform="translate(315,677)"/>
<path d="M0 0 C4.17906895 3.55994763 6.68559431 8.08663054 9 13 C9 13.66 9 14.32 9 15 C6.69 15 4.38 15 2 15 C-0.01023791 12.16201706 -0.05105942 10.25359708 0.4375 6.9375 C1.28416697 3.10714492 1.28416697 3.10714492 0 0 Z " fill="#1D1C1D" transform="translate(260,670)"/>
<path d="M0 0 C0.99 0 1.98 0 3 0 C3.0868329 3.458176 3.14033282 6.91607344 3.1875 10.375 C3.22520508 11.85226562 3.22520508 11.85226562 3.26367188 13.359375 C3.27333984 14.30039062 3.28300781 15.24140625 3.29296875 16.2109375 C3.3086792 17.08024902 3.32438965 17.94956055 3.34057617 18.84521484 C3.22818604 19.55629395 3.1157959 20.26737305 3 21 C2.01 21.66 1.02 22.32 0 23 C0 15.41 0 7.82 0 0 Z " fill="#2A292A" transform="translate(204,649)"/>
<path d="M0 0 C3.48331435 3.01887244 4.79157144 5.56909529 6 10 C5.34 10.66 4.68 11.32 4 12 C2.125 12 2.125 12 0 11 C-2.25 7.9375 -2.25 7.9375 -4 5 C-2.25 1.125 -2.25 1.125 0 0 Z " fill="#1E1E1F" transform="translate(802,665)"/>
<path d="M0 0 C1.35217824 2.8975248 1.05148781 5.03671617 0 8 C-0.99 9.485 -0.99 9.485 -2 11 C-2.28875 10.236875 -2.5775 9.47375 -2.875 8.6875 C-3.96269013 5.84970692 -3.96269013 5.84970692 -6 3 C-6.825 2.835 -7.65 2.67 -8.5 2.5 C-9.325 2.335 -10.15 2.17 -11 2 C-11.66 1.01 -12.32 0.02 -13 -1 C-3.9751434 -2.52963671 -3.9751434 -2.52963671 0 0 Z " fill="#2A292B" transform="translate(373,650)"/>
<path d="M0 0 C0.66 0.99 1.32 1.98 2 3 C1.67 3.66 1.34 4.32 1 5 C2.65 4.34 4.3 3.68 6 3 C3.15240273 6.04398329 1.30153445 7.88998401 -3.04296875 8.09765625 C-3.75066406 8.08605469 -4.45835937 8.07445312 -5.1875 8.0625 C-7.0746875 8.0315625 -7.0746875 8.0315625 -9 8 C-7.68 7.67 -6.36 7.34 -5 7 C-5 6.01 -5 5.02 -5 4 C-6.65 3.67 -8.3 3.34 -10 3 C-10 2.67 -10 2.34 -10 2 C-6.7 1.34 -3.4 0.68 0 0 Z " fill="#1A1A1B" transform="translate(684,678)"/>
<path d="M0 0 C0.93423645 3.01031744 1.04449911 3.86650268 0 7 C-2.0625 8.6875 -2.0625 8.6875 -4 10 C-4.33 8.02 -4.66 6.04 -5 4 C-5.99 3.67 -6.98 3.34 -8 3 C-8.99 2.34 -9.98 1.68 -11 1 C-6.8204355 -1.78637633 -4.85331323 -0.79562512 0 0 Z " fill="#2C2C2D" transform="translate(266,650)"/>
<path d="M0 0 C5.27109902 3.43420088 10.25916033 6.86696029 15 11 C11.36804504 11 10.25286089 10.04546845 7.3125 8 C6.50425781 7.443125 5.69601562 6.88625 4.86328125 6.3125 C4.24839844 5.879375 3.63351562 5.44625 3 5 C2.95101563 5.75925781 2.90203125 6.51851563 2.8515625 7.30078125 C2.77679688 8.29464844 2.70203125 9.28851563 2.625 10.3125 C2.52058594 11.79169922 2.52058594 11.79169922 2.4140625 13.30078125 C2 16 2 16 0 19 C0 12.73 0 6.46 0 0 Z " fill="#EA18C7" transform="translate(407,360)"/>
<path d="M0 0 C3 0.125 3 0.125 4 1.125 C4.1875 3.5625 4.1875 3.5625 4 6.125 C3.34 6.785 2.68 7.445 2 8.125 C-2.55555556 7.56944444 -2.55555556 7.56944444 -4 6.125 C-4.125 3.625 -4.125 3.625 -4 1.125 C-3 0.125 -3 0.125 0 0 Z " fill="#1E1E1F" transform="translate(857,677.875)"/>
<path d="M0 0 C0.99 0 1.98 0 3 0 C4.25955231 3.77865693 3.48087189 5.03411786 2.0625 8.6875 C1.68222656 9.68136719 1.30195313 10.67523437 0.91015625 11.69921875 C0.60980469 12.45847656 0.30945313 13.21773437 0 14 C-0.99 14 -1.98 14 -3 14 C-3.34615998 8.34605369 -2.43425238 4.96993194 0 0 Z " fill="#28282A" transform="translate(484,656)"/>
<path d="M0 0 C1 2 1 2 -0.21484375 5.6953125 C-0.78133585 7.17485658 -1.35591889 8.65132181 -1.9375 10.125 C-2.22818359 10.87910156 -2.51886719 11.63320313 -2.81835938 12.41015625 C-3.53874998 14.27608602 -4.26850404 16.1383958 -5 18 C-5.99 17.01 -6.98 16.02 -8 15 C-8.66 15.99 -9.32 16.98 -10 18 C-9.53199289 13.94393835 -9.12046792 10.53411321 -7 7 C-6.34 8.32 -5.68 9.64 -5 11 C-3.35 7.37 -1.7 3.74 0 0 Z " fill="#171718" transform="translate(488,658)"/>
<path d="M0 0 C2.29633824 3.44450737 2.54016485 5.93812283 3 10 C2.01 9.01 1.02 8.02 0 7 C-3.21880117 10.7935871 -5.6163187 14.65829477 -8 19 C-8.33 18.34 -8.66 17.68 -9 17 C-8.28735352 15.21240234 -8.28735352 15.21240234 -7.12890625 13.0859375 C-6.71962891 12.32539063 -6.31035156 11.56484375 -5.88867188 10.78125 C-5.45103516 9.9871875 -5.01339844 9.193125 -4.5625 8.375 C-4.12873047 7.57320313 -3.69496094 6.77140625 -3.24804688 5.9453125 C-2.17243012 3.95955849 -1.08952787 1.9781454 0 0 Z " fill="#E818C6" transform="translate(273,361)"/>
<path d="M0 0 C0.66 0 1.32 0 2 0 C3.19725883 2.28703308 4.38297018 4.57884862 5.5625 6.875 C5.90474609 7.52597656 6.24699219 8.17695313 6.59960938 8.84765625 C7.46082891 10.53529857 8.23686703 12.26579593 9 14 C8.67 14.66 8.34 15.32 8 16 C6.35 13.03 4.7 10.06 3 7 C1.35 7.66 -0.3 8.32 -2 9 C-1.125 2.25 -1.125 2.25 0 0 Z " fill="#E919C6" transform="translate(164,361)"/>
<path d="M0 0 C1.5 1.375 1.5 1.375 3 3 C3 3.66 3 4.32 3 5 C-0.63423209 7.32590854 -3.77088331 7.16265833 -8 7 C-7.67 5.35 -7.34 3.7 -7 2 C-4.69 1.34 -2.38 0.68 0 0 Z " fill="#29292A" transform="translate(223,678)"/>
<path d="M0 0 C3.86180518 3.52688135 5.85267267 7.98116683 8.25 12.5625 C8.72179687 13.43841797 9.19359375 14.31433594 9.6796875 15.21679688 C10.12054688 16.05404297 10.56140625 16.89128906 11.015625 17.75390625 C11.42071289 18.52033447 11.82580078 19.2867627 12.24316406 20.07641602 C12.49291992 20.71119873 12.74267578 21.34598145 13 22 C12.67 22.66 12.34 23.32 12 24 C8.78242149 18.74005782 5.63789336 13.44266672 2.625 8.0625 C2.12226563 7.16660156 1.61953125 6.27070313 1.1015625 5.34765625 C0 3 0 3 0 0 Z " fill="#E918C5" transform="translate(204,436)"/>
<path d="M0 0 C2.125 1.9375 2.125 1.9375 4 4 C4 4.66 4 5.32 4 6 C-3.75 5.25 -3.75 5.25 -6 3 C-6 2.01 -6 1.02 -6 0 C-2.25 -1.125 -2.25 -1.125 0 0 Z " fill="#2A292B" transform="translate(552,649)"/>
<path d="M0 0 C2.40575607 2.18517099 3.79535581 4.25919671 5.1875 7.1875 C5.53167969 7.90292969 5.87585938 8.61835937 6.23046875 9.35546875 C6.48441406 9.89816406 6.73835937 10.44085937 7 11 C4.69 11 2.38 11 0 11 C-0.33 10.01 -0.66 9.02 -1 8 C-0.34 8 0.32 8 1 8 C0.67 5.36 0.34 2.72 0 0 Z " fill="#161616" transform="translate(552,674)"/>
<path d="M0 0 C1.76462683 3.08809695 2 4.23312136 2 8 C0.68 8.33 -0.64 8.66 -2 9 C-4.1519437 5.77208445 -4.20086443 4.71599191 -4 1 C-2.68 0.67 -1.36 0.34 0 0 Z " fill="#242425" transform="translate(209,674)"/>
<path d="M0 0 C0 0.99 0 1.98 0 3 C-3.96 3 -7.92 3 -12 3 C-12 2.34 -12 1.68 -12 1 C-8.0186217 -0.3271261 -4.14954773 -0.06915913 0 0 Z " fill="#282828" transform="translate(773,665)"/>
<path d="M0 0 C0.99 0.33 1.98 0.66 3 1 C2.01 3.31 1.02 5.62 0 8 C-2.31 7.67 -4.62 7.34 -7 7 C-5.1875 5 -5.1875 5 -3 3 C-2.01 3 -1.02 3 0 3 C0 2.01 0 1.02 0 0 Z " fill="#29292A" transform="translate(330,678)"/>
<path d="M0 0 C0 0.99 0 1.98 0 3 C0.66 3.66 1.32 4.32 2 5 C-5.42857143 5.28571429 -5.42857143 5.28571429 -9 3 C-6.38997624 -0.48003168 -4.1689578 -0.27793052 0 0 Z " fill="#2F2F30" transform="translate(681,648)"/>
<path d="M0 0 C1.98 0 3.96 0 6 0 C5.01 2.97 4.02 5.94 3 9 C2 6 2 6 2.9375 3.8125 C3.4634375 2.9153125 3.4634375 2.9153125 4 2 C3.01 2.33 2.02 2.66 1 3 C-0.21869929 5.50447516 -0.21869929 5.50447516 -1 8 C-1.93065133 5.39417629 -2.14917407 4.35801776 -1.0625 1.75 C-0.711875 1.1725 -0.36125 0.595 0 0 Z " fill="#1A1A1A" transform="translate(487,647)"/>
<path d="M0 0 C0.99 0.33 1.98 0.66 3 1 C3.99 0.67 4.98 0.34 6 0 C6.33 1.65 6.66 3.3 7 5 C6.01 5 5.02 5 4 5 C4 6.65 4 8.3 4 10 C1.04816899 7.04816899 0.91336012 4.04488053 0 0 Z " fill="#141414" transform="translate(468,669)"/>
<path d="M0 0 C2.625 1.4375 2.625 1.4375 5 3 C3.515 5.475 3.515 5.475 2 8 C-0.50037734 5.82575883 -1.43628586 4.26954202 -2 1 C-1.34 0.67 -0.68 0.34 0 0 Z " fill="#2A292A" transform="translate(798,661)"/>
<path d="M0 0 C-0.33 0.33 -0.66 0.66 -1 1 C-0.34 1.66 0.32 2.32 1 3 C-2.63 3 -6.26 3 -10 3 C-9.67 2.01 -9.34 1.02 -9 0 C-5.62182575 -0.84454356 -3.32534757 -1.10844919 0 0 Z " fill="#181818" transform="translate(258,650)"/>
<path d="M0 0 C0.99 0 1.98 0 3 0 C1.68938409 4.23429756 0.05643741 8.07407404 -2 12 C-3.15957207 8.52128379 -2.77456651 7.65780355 -1.5625 4.3125 C-1.13130859 3.10013672 -1.13130859 3.10013672 -0.69140625 1.86328125 C-0.46324219 1.24839844 -0.23507812 0.63351562 0 0 Z " fill="#171618" transform="translate(732,659)"/>
<path d="M0 0 C0.99 0 1.98 0 3 0 C3.33 0.99 3.66 1.98 4 3 C2.625 4.5 2.625 4.5 1 6 C0.34 6 -0.32 6 -1 6 C-1.33 6.66 -1.66 7.32 -2 8 C-1.125 1.125 -1.125 1.125 0 0 Z " fill="#202021" transform="translate(484,656)"/>
<path d="M0 0 C2.31 0 4.62 0 7 0 C7.66 2.97 8.32 5.94 9 9 C6.64046906 6.64046906 6.50858587 5.22104383 6 2 C4.35 2.33 2.7 2.66 1 3 C0.67 2.01 0.34 1.02 0 0 Z " fill="#1D1D1D" transform="translate(460,647)"/>
<path d="M0 0 C0.33 0.66 0.66 1.32 1 2 C-0.25 4.625 -0.25 4.625 -2 7 C-2.99 7 -3.98 7 -5 7 C-4.75 4.625 -4.75 4.625 -4 2 C-1.9375 0.6875 -1.9375 0.6875 0 0 Z " fill="#171618" transform="translate(637,672)"/>
<path d="M0 0 C2.31 0 4.62 0 7 0 C5.515 2.475 5.515 2.475 4 5 C3.67 4.34 3.34 3.68 3 3 C2.01 2.67 1.02 2.34 0 2 C0 1.34 0 0.68 0 0 Z " fill="#1A1B1B" transform="translate(588,647)"/>
</svg>
